# xmcd CD database file
#
# Track frame offsets:
#	150
#	18162
#	36542
#	54452
#	71880
#	91375
#	108042
#	127210
#	143985
#	165797
#
# Disc length: 2567 seconds
#
# Revision: 0
# Processed by: cddbd v1.5.1PL0 Copyright (c) Steve Scherf et al.
# Submitted via: CDex 1.51
#
DISCID=860a050a
DTITLE=jamic Spoon - bug
DYEAR=1997
DGENRE=Slow Jam
TTITLE0=FREE COLOR
TTITLE1=あいしてる
TTITLE2=かんちがい
TTITLE3=ピーマン
TTITLE4=くじらとであった日
TTITLE5=ママレードブルー
TTITLE6=ラジコン飛行機
TTITLE7=紅茶
TTITLE8=SAI-MABO
TTITLE9=微妙な空間
EXTD=YEAR: 1997
EXTT0=
EXTT1=
EXTT2=
EXTT3=
EXTT4=
EXTT5=
EXTT6=
EXTT7=
EXTT8=
EXTT9=
PLAYORDER=
